<svg width="800" height="242pt" viewBox="0 0 600 242" xmlns="http://www.w3.org/2000/svg"><path fill="#c333c6" d="M73.7 36.6A39 39 0 01115.4 17c-3.4 5-7.3 9.8-10.6 15-9 1-17.3 6.8-20.7 15.2-1.6 3.7-1.4 7.8-1.4 11.8-4.4 6.6-8.9 13.3-14.3 19.3v-4c-5.2-.1-10.3-.3-15.3.6 1-5.8 6.8-9 8.6-14.5l-4.5-1.1-.8-.1c3.9-.3 7.8-.5 11.7-1.1.9-7.4 1.7-15 5.6-21.5z"/><path fill="#b630c6" d="M115.4 17c6.8 1.3 13 4.5 18.2 9-3 4.3-5.5 9-9.5 12.5a25.5 25.5 0 00-19.3-6.5c3.3-5.2 7.2-10 10.6-15z"/><path fill="#a52dc6" d="M133.6 26c8 7 12.8 17.3 13.2 28 0 1.5 0 3 .5 4.5-4.6 6.8-9.2 13.7-14.7 19.7l-.1-3.9H96.9l10-13.8c-5-1.6-10.3.1-15.2-1.5 13.6-.3 27.2.3 40.8-.1 0-3.7.2-7.6-1.4-11-1.6-3.6-4.1-6.8-7-9.4 4-3.5 6.5-8.2 9.5-12.5z"/><g fill="#4d23c6"><path d="M232.3 58h26.9c3.8.6 7.8 2.9 9.1 6.7 2.2 5.7.9 13.3-4.9 16.3 1.8 1 3.6 2.2 4.2 4.3 1.5 4.7.4 9.8 1.6 14.6.2 1.6 2.4 2.2 1.8 4h-8.1c-1.7-4.5-.4-9.7-1.7-14.4-.3-3-3.2-5-6.1-5-5.3-.3-10.6-.2-16-.2V104h-6.8V58m6.9 5.5v15c6.2-.3 12.6.8 18.6-.8 6.3-1.8 6-12.8-.6-13.9-6-.8-12-.2-18-.3zM399.6 58h8.2c7.5 11.8 14.8 23.8 22.3 35.5V58c2.2.1 4.5-.3 6.6.2v45.6c-2.6.4-5.1.1-7.6.2-7.8-12-15.2-24.2-23-36v36h-6.5V58zM499 58h6v6.4h-6V58zM382 61h6.2V70c1.8.2 3.6-.2 5.4.2V75c-1.7.6-3.6 0-5.3.3 0 7.4-.3 14.9.1 22.3.9 2.3 3.6 1 5.2 1.8v4.6c-3.3 1-7.5 1.2-10.2-1.4-1-1.6-1.4-3.6-1.4-5.5V75.1c-1.6-.1-3.2.4-4.6-.2V70c1.5-.3 3 0 4.5-.2V61zM482 61h6.2V70c1.8.2 3.6-.2 5.4.2v4.6c-1.5 1-3.6.1-5.3.5v21.6c.2 2.7 3.4 2.1 5.3 2.4v4.7c-3.3 1-7.5 1.2-10.1-1.3A10 10 0 01482 97V75.1c-1.6-.2-3.2.4-4.6-.3v-4.7c1.5-.4 3 0 4.5-.2V61zM278.9 74.9c5.7-7.9 19.1-7.5 24.6.5 2.5 4 2.7 9 2.4 13.6h-24.2c0 4.5 2.4 10 7.4 10.4a9 9 0 0010.3-6.2c1.9-.7 4-.1 6.1-.3.1 3-1.8 5.8-3.7 8-3.4 3.8-9 4.5-13.9 4.1a14.6 14.6 0 01-12.4-11.9c-1.1-6.1-.7-13.1 3.4-18.2m3 9l17.7.1c-.1-4.3-3-8.9-7.6-9.2-5.3-.7-10 4-10.1 9.2zM316.8 71.7c5.7-3.4 13-3.3 18.9-.5 2.3 1 3.8 3.4 4 5.9.5 7.3-.4 14.7.4 21.9 1 .5 2.2.6 3.3.5 0 1.6.4 3.2 0 4.7-3.6 1.3-9 .5-9.5-4.1-3.9 4.3-10.3 6-15.8 4.4-7.4-2.1-9.2-13-3.2-17.6 4.9-3.6 11.3-2.6 16.9-4.1 2.8-1 2.1-5.5 0-6.9-4.5-2.8-12.8-1.5-13 4.9H313c-.2-3.4.9-7.1 3.7-9m1.6 20.5c-.6 1.9-.9 4.2.7 5.6 3.1 3 8.1 1.7 11.3-.5 3.3-2.2 3.4-6.5 3.1-10-4.9 2.2-11.5.4-15.1 5zM352.4 72.4c3.9-3.6 9.6-3.9 14.5-2.8 5.6 1.1 8.9 6.6 8.9 12-2 .2-4.1.3-6.1 0-.5-3.3-3-6.8-6.7-6.8-3.8-.7-7.4 2-8.5 5.6a19.4 19.4 0 00.3 14.7 7 7 0 008.2 4.2c3.9-.4 5.9-4.3 6.8-7.7h6a15 15 0 01-4.3 10 17 17 0 01-16.3 2.2c-5.3-2.4-8.3-8.3-8.5-13.9-.5-6.2.7-13.3 5.7-17.5zM448.8 71.7c5.7-3.4 13-3.3 19-.5 2.2 1 3.6 3.4 3.9 5.8.5 7.3-.4 14.8.4 22 1 .5 2.2.6 3.3.5 0 1.6.4 3.2 0 4.7-3.6 1.2-9 .6-9.5-4-2.9 2.8-6.8 4.8-10.9 4.9-4.9.4-10.4-2.5-11.3-7.6-1.2-4.2.4-9.3 4.3-11.4 4.8-2.7 10.6-1.9 15.8-3.3 2.8-1 2.1-5.5 0-7-4.6-2.7-12.8-1.4-13 5l-5.8-.1c0-3.3 1-7 3.8-9m4.3 18.4c-3 1-4.4 5.5-2 7.8 3.1 3 8.1 1.7 11.3-.5 3.3-2.2 3.4-6.4 3.1-10-4 1.5-8.4 1.3-12.4 2.7zM547.8 73.8c6.1-6.8 18.5-6 23.7 1.6 2.5 4 2.7 9 2.5 13.6h-24.3c0 4.9 3 10.7 8.4 10.5 4.5.6 8.1-2.9 9.7-6.6h5.8a13.7 13.7 0 01-10 11.6c-4.3.9-9 1.1-13-1.3-4.6-2.6-7.3-7.9-7.5-13.1-.5-5.8.6-12 4.7-16.3m2 10.2h17.8c-.1-4.3-3-8.9-7.6-9.2-5.3-.7-10 4-10.1 9.2zM499 70.1h6V104h-6V70zM509 70h7.2c2.8 8.7 5.8 17.2 8.3 26l.6-.6L534 70h6.7c-3.9 11.4-8.4 22.7-12.6 34-2.3 0-4.5.2-6.7-.1-4-11.3-8.4-22.5-12.3-33.8zM232 138c5.5.1 11.1-.3 16.6.2 2.8 13 6 25.8 8.8 38.8 3.2-13 6-26 9-39h16.3V190c-3.5.2-7.1 0-10.6 0-.4-13.3.4-26.7-.5-40-2.3 13.4-5.9 26.7-8.7 40h-11c-3.5-13.1-5.7-26.9-9.4-40.1.4 13.4.2 26.8.1 40.2h-10.5v-52zM359.3 138h10.4v27c4-4.6 7.9-9 11.7-13.6 4.4-.3 8.9-.2 13.3 0-4 5.2-8.9 9.8-13.2 14.8 4.2 8 9.7 15.6 13.6 23.8-4.3 0-8.5.2-12.8-.1l-8.6-15.7c-1.6.8-2.7 2.6-4 3.8v12h-10.4v-52zM440.8 141h10.5v10.4h6.2v7.7c-2 .2-4.1 0-6.2.1 0 7.1-.2 14.3.1 21.4.7 2.6 4.1 1.3 6 1.8.2 2.6.1 5.3 0 8-4.4 0-9.2.8-13.4-1.2-2.3-1.2-3.1-3.9-3.2-6.3v-23.7h-5.3v-7.7h5.2c.2-3.6 0-7 .1-10.5zM297.7 151.7a27.6 27.6 0 0120 .8c3 1.2 5 4.3 5.2 7.4.7 8.8-.3 17.7.6 26.4 1.2 1 1.9 2.1 1.5 3.7h-11.1c-.7-1.3-.8-2.7-1-4-3.7 3.6-8.8 6-14 5-5.5-.4-10.7-5.2-9.9-11-.7-4.7 1.8-9.8 6.4-11.5 4.6-2.2 10-1.8 14.8-3.2 2.4-.7 3-4 .9-5.4-4-2.2-10.4-1-10.9 4.2H290c.1-5.2 2.7-10.6 7.7-12.4m4.8 22.8c-3 1-4.1 5.5-1.6 7.6 2.3 2 5.6 1 8-.3 3.4-2 3.7-6.3 3.6-9.9-3.3 1.2-6.8 1.4-10 2.6zM341.4 156.8c2.4-4.6 7.4-7.1 12.6-6.6V161c-4.6-.8-10.9.6-11.6 6-1 7.6-.2 15.3-.5 22.9h-10.6V151h10c.2 1.9.1 3.8.1 5.7zM408.8 151c7.1-2 16-.7 20.5 5.7 3.8 4.7 4.1 11 4 16.8-8.7.3-17.5 0-26.2.2 0 4 2.7 8.2 6.9 8.6 3.3.8 6.5-1.2 8-4.1 3.6 0 7.2-.2 10.8 0-1 6-6 11-11.9 12.4-6.8 1.7-14.6.3-19.7-4.8-4.8-4.9-5.1-12.3-4.6-18.7.4-7.2 5-14.3 12.2-16.2m-1 15.4c4.7.2 9.5.1 14.3 0 0-4.1-4-8-8.2-7.2-3.5.2-6.4 3.8-6.2 7.3z"/></g><path fill="#b631c6" d="M68.4 78.3c5.4-6 9.9-12.7 14.3-19.3h9c5 1.6 10.2 0 15.1 1.5l-10 13.8h-14c-.7 6.5.3 13-.2 19.5-.7 6.4-11 8-13.3 1.9-1.8-5.6-.5-11.7-.9-17.5z"/><g fill="#952bc6"><path d="M147.3 58.5l.3-.4c6.9 1 14.1.5 20.7 3.1-2.5 4.7-6.4 8.6-8.6 13.5-4.2-.9-8.5-.5-12.8-.4-.3 6.5.4 13.1-.3 19.6-.8 6-10 8-12.9 2.4-2.2-5.8-.8-12.1-1.1-18.1 5.5-6 10.2-12.9 14.7-19.7zM110.6 142c3.6 1 6.6 4 7.2 7.6-3.3 4.4-6.5 9-11.1 12.2a10 10 0 01-7.8-7.2c1.4-.7 3-1.3 4-2.7 2.6-3.3 5.7-6.3 7.7-10z"/></g><path fill="#cb34c6" d="M33.5 77.4a24.2 24.2 0 0123.7-18.1l4.5 1.1C59.9 66 54 69.1 53 75c-3.3 1-4.7 4.2-5.3 7.2-3.3 1.6-4.7 5.2-6.9 7.8-3.2 3.9-5.5 8.5-9.7 11.5.6-8 .7-16.1 2.3-24z"/><path fill="#8028c5" d="M168.3 61.2a23.3 23.3 0 0114 19.9l1.8 25.6c-1.4 3.8-3.7 7-6.1 10.3-2 2.7-3.7 6-7 7.4-.9-10.5-1.8-21-2.5-31.4-.4-4.7-.5-9.6-2.7-13.8-1.1-2.4-3.6-3.7-6-4.5 2.1-5 6-8.8 8.5-13.5z"/><path fill="#ba31c6" d="M40.9 90c2.2-2.7 3.6-6.3 6.9-7.9C46.2 89 46 96 45.8 103c-1.4 17.6-3 35.1-4.3 52.7-5.3 5.4-9.3 12-13.7 18.1l-1.7-1.6c1.4-23.6 3.4-47.1 5.1-70.7 4.2-3 6.5-7.6 9.7-11.5z"/><path fill="#6a26c6" d="M178 117c2.4-3.2 4.7-6.5 6.1-10.3l3.4 46.9c-5.4 4.4-7.5 11.6-13.2 15.7-1-15-2.4-30-3.4-45 3.4-1.3 5-4.6 7-7.3z"/><path fill="#c433c6" d="M80.7 112.7C83 109 88 108.3 92 109c6.5 1.1 11.2 6.2 16.3 9.9-1.4 1.5-2.9 3-4.4 4.3-4.6-3.5-9.7-8.3-15.9-7.4-5.6 3.9-3.8 11.8-3.1 17.6l4.2-.3a87.5 87.5 0 01-8.4 8.3c-4.6 1.8-9.8 3.6-12.5 8-1.6 2.7 0 5.8 2.3 7.5a55.7 55.7 0 01-3.6 5c-3.3-2.2-6.3-5.7-6.3-9.8-.4-4.4 2.5-8.3 5.9-10.7 3.7-2.8 8.1-4.2 12.2-6.4-.6-7.4-2.5-15.6 1.9-22.3z"/><path fill="#ae2fc6" d="M108.4 118.9c5.5-5 11.8-10.4 19.7-10 4.2-.4 8 2.8 9.1 6.8l-5.6 4.5c-.1-3.2-3.6-5.3-6.5-4.4-4.8 1-8.6 4.3-12.2 7.4 1.8 3.4 4 7 7.6 8.6l-4.7 6.8c-4.4-2.1-10-2-14.4-.2-3.8 2.6-5.6 7.2-7.8 11-1.6 2.8-.5 5.9 1 8.4-1.3 1.5-3 2.7-4.8 3.7l-1.2-1.5-.9 3.5c-2 4-5.6 7-9.1 9.8l.9-4.6c-4.1-2.3-8.7-3.9-12.5-6.7 1.2-1.6 2.5-3.3 3.5-5 3.3 2.4 7 4.1 11 5 1.4-3.3 3.4-6.5 3.1-10-.3-3.8-2.2-7.2-3.8-10.6 3-2.5 5.7-5.4 8.4-8.3 2.9-.2 6-.7 8.4-2.4 2.7-2 4.5-4.8 6.4-7.5l4.4-4.3m-3.3 12.3c2.1 0 4.3.3 6.4.5L108 128c-1 1-2.4 1.8-3 3.1m-18 8l1.8 5.2 4-5.3H87z"/><path fill="#972bc6" d="M131.6 120.2c2-1.4 3.8-3 5.6-4.5 2.5 6.1 1.1 13-.1 19.3a49.2 49.2 0 01-13.7 15.4 34.3 34.3 0 00-7.6-11.8l4.7-6.8c3.5 1.4 7.4 1.3 11.1 1.3.3-4.3.7-8.6 0-12.9m-8 18.5c1.3 2.1 2.4 4.3 3.9 6.3.5-2 1.3-3.8 1.8-5.7-2 0-3.8-.5-5.6-.6z"/><path fill="#8429c5" d="M137 135c5 2.5 10.5 4.3 14.8 7.9-1.2 2-2.7 3.6-4.8 4.6a23 23 0 00-11.7-5.8c-2 4.8-5.1 10-2.8 15.2a7.3 7.3 0 01-4.5 4.5l-.9-1-2 4.2v.1c-5.5 7.2-13 12.7-18.4 20-1.7 2.3-4.7 3.8-5.2 6.7v.2a25.4 25.4 0 01-11.6 4.9c-3.4.4-6.8-1.3-9-3.8 2.1-1.3 4-3 5.5-4.8 1.4 1.2 3.4 2.5 5.4 1.7 4.5-1.5 8.3-4.7 12-7.6-1.4-2.6-3-5-5-7.2 2.4-2.5 5-4.6 7-7.3l-1.9-1.3c5.2.6 12 1 15.2-4 2.3-3.5 5.4-7.4 4.3-11.8a49.2 49.2 0 0013.7-15.4m-32.3 36.9c1 1.8 2.4 3.3 3.6 5 1.5-1.3 2.7-3.5 3.7-5.4-2.4.1-5-.1-7.3.4z"/><path fill="#c232c6" d="M98.9 154.6c-1.9-6.8 4.5-14.4 11.7-12.6-2 3.7-5.1 6.6-7.7 10-1 1.3-2.6 1.9-4 2.6z"/><path fill="#7327c6" d="M147 147.5c2-1 3.6-2.7 4.8-4.6 4.4 3.4 5.7 10.5 2 15-4 5.5-10.6 7.7-16.7 10.2l.7 5.8c-1.2 2.2-3.1 4-5.2 5.4 0-3.3-.6-6.6-1.8-9.6-3.4.2-7 .6-10 2.4-3.4 2.2-5.6 6-7.7 9.4 2.4 2.4 5 4.7 8 6.3-1.8 1.4-3.3 3-4.8 4.6-2.8-1.9-5.5-4-8.2-6-2.2 1.6-4.2 3.6-6.6 5 .5-3 3.5-4.4 5.2-6.7 5.4-7.3 13-12.8 18.5-20l4.3-1-1.5-2.3a7.3 7.3 0 004.6-4.5c.7 1.8 1.5 3.6 2.5 5.3 5-1.7 10.8-3.6 13.7-8.4 1.1-2.3-.3-4.6-1.8-6.3z"/><path fill="#6926c6" d="M106.7 161.8c4.6-3.1 7.8-7.8 11.1-12.2 1.9 6.5-4.3 13.9-11.1 12.2z"/><path fill="#5624c6" d="M174.3 169.3c5.7-4.1 7.8-11.3 13.2-15.7l2.3 31.4c.3 5.7 1.5 11.4.4 17a29.2 29.2 0 01-17 17.2c-6.8 2.7-14.3 1.6-21.3 1.8 2.7-3.6 5.3-7.5 7.9-11.2 1.2-2 3.3-2.9 5.3-3.8 3.5-.4 7.3-1.4 9.2-4.7 2.2-4.4 1.8-9.6 1.4-14.4l-1.4-17.6z"/><path fill="#a82ec6" d="M27.8 173.7c4.4-6.1 8.4-12.7 13.7-18.1-.7 10.7-2.2 21.4-2 32.2-5.3 4.5-7.8 11.8-13.6 15.8-1.8-4-1.8-8.4-1.3-12.6.6-6.3.7-12.7 1.5-19 .5.7 1.1 1.2 1.7 1.7z"/><path fill="#982cc6" d="M94.7 157.8c2 3.7 4.5 8 9.2 8.4l1.8 1.3c-2 2.7-4.5 4.8-6.8 7.3-3.2-3.9-8.4-5-13.2-5-.9 5.8-3.6 13 .7 18a21.8 21.8 0 01-5.4 4.9c-4.1-5.5-3.5-13-2.4-19.4 3.5-2.8 7-5.8 9.1-9.8.7 1.6 3 .6 4.3 1l-2.2-3c1.8-1 3.5-2.2 4.9-3.7z"/><g fill="#6425c6"><path d="M137.8 173.9c.8 5 1.5 10.5-.5 15.4-1.3 3.6-4.4 6.8-8.3 7.2-4.6.3-9-1.5-12.7-4.1 1.5-1.6 3-3.2 4.7-4.6 2.5 1 5.5 3 8 1.1 3-2.2 3.2-6.2 3.6-9.6 2-1.5 4-3.2 5.2-5.4zM111.7 206.1h53.4c-2 .8-4 1.8-5.3 3.7-2.6 3.7-5.2 7.6-8 11.2h-39c2.8-4.6 6.6-8.6 9.3-13.2-3-1.3-6.6-.6-9.9-1l-.5-.7z"/></g><path fill="#9d2cc6" d="M25.9 203.6c5.8-4 8.3-11.3 13.6-15.8.4 5.8-1 14.5 5.9 17l.3 2.8c-2 3.4-4.7 6.3-6.9 9.5l-.5.4c-5.5-3.2-10-8-12.4-14z"/><path fill="#8c2ac5" d="M45.4 204.8c2.7 1 5.7 1.3 8.6 1.3h57.7l.5.7c-8.9 0-17.9-.3-26.8.6-3.8 4.3-6.8 9.3-10.5 13.6H52c-4.7 0-9.4-1.2-13.5-3.4l.3-.5c2.2-3.3 5-6.1 6.9-9.5 0-1-.2-1.9-.4-2.8z"/><path fill="#7927c5" d="M85.4 207.4c9-1 18-.6 26.8-.6 3.3.4 6.8-.3 9.9 1-2.7 4.6-6.5 8.6-9.3 13.2h-38c3.8-4.3 6.8-9.3 10.6-13.6z"/></svg>